<svg xmlns="http://www.w3.org/2000/svg" xmlns:xlink="http://www.w3.org/1999/xlink" version="1.2" width="1800.00mm" height="100.00mm" viewBox="0 0 1024.2992 56.9055">
<style type="text/css">
<![CDATA[
tspan { white-space: pre; }
]]>
</style>
<!-- Page: 1/1 -->
<g transform="translate(31.6627, 6.0611)">
<rect x="-0.0795" y="-4.8211" width="0.1590" height="6.6277" ry="0.0400" fill="currentColor"/>
</g>
<a style="color:inherit;" xlink:href="textedit://C:/Users/jwloy/Documents/GitHub/ill20231227/public/pieces/ill20231227/notation/featheredbeams.ly:82:78:79">
<g transform="translate(30.3865, 8.0611)">
<path transform="scale(0.0042, -0.0042)" d="M218 136c55 0 108 -28 108 -89c0 -71 -55 -121 -102 -149c-35 -21 -75 -34 -116 -34c-55 0 -108 28 -108 89c0 71 55 121 102 149c35 21 75 34 116 34z" fill="currentColor"/>
</g>
</a>
<g transform="translate(30.0071, 6.0611)">
<rect x="-0.0795" y="-4.8211" width="0.1590" height="6.6277" ry="0.0400" fill="currentColor"/>
</g>
<a style="color:inherit;" xlink:href="textedit://C:/Users/jwloy/Documents/GitHub/ill20231227/public/pieces/ill20231227/notation/featheredbeams.ly:82:75:76">
<g transform="translate(28.7309, 8.0611)">
<path transform="scale(0.0042, -0.0042)" d="M218 136c55 0 108 -28 108 -89c0 -71 -55 -121 -102 -149c-35 -21 -75 -34 -116 -34c-55 0 -108 28 -108 89c0 71 55 121 102 149c35 21 75 34 116 34z" fill="currentColor"/>
</g>
</a>
<a style="color:inherit;" xlink:href="textedit://C:/Users/jwloy/Documents/GitHub/ill20231227/public/pieces/ill20231227/notation/featheredbeams.ly:82:81:82">
<g transform="translate(32.0422, 8.0611)">
<path transform="scale(0.0042, -0.0042)" d="M218 136c55 0 108 -28 108 -89c0 -71 -55 -121 -102 -149c-35 -21 -75 -34 -116 -34c-55 0 -108 28 -108 89c0 71 55 121 102 149c35 21 75 34 116 34z" fill="currentColor"/>
</g>
</a>
<g transform="translate(28.2337, 6.0611)">
<rect x="-0.0795" y="-4.8211" width="0.1590" height="6.6277" ry="0.0400" fill="currentColor"/>
</g>
<a style="color:inherit;" xlink:href="textedit://C:/Users/jwloy/Documents/GitHub/ill20231227/public/pieces/ill20231227/notation/featheredbeams.ly:82:72:73">
<g transform="translate(26.9575, 8.0611)">
<path transform="scale(0.0042, -0.0042)" d="M218 136c55 0 108 -28 108 -89c0 -71 -55 -121 -102 -149c-35 -21 -75 -34 -116 -34c-55 0 -108 28 -108 89c0 71 55 121 102 149c35 21 75 34 116 34z" fill="currentColor"/>
</g>
</a>
<g transform="translate(26.0170, 6.0611)">
<rect x="-0.0795" y="-4.8211" width="0.1590" height="6.6277" ry="0.0400" fill="currentColor"/>
</g>
<a style="color:inherit;" xlink:href="textedit://C:/Users/jwloy/Documents/GitHub/ill20231227/public/pieces/ill20231227/notation/featheredbeams.ly:82:69:70">
<g transform="translate(24.7408, 8.0611)">
<path transform="scale(0.0042, -0.0042)" d="M218 136c55 0 108 -28 108 -89c0 -71 -55 -121 -102 -149c-35 -21 -75 -34 -116 -34c-55 0 -108 28 -108 89c0 71 55 121 102 149c35 21 75 34 116 34z" fill="currentColor"/>
</g>
</a>
<a style="color:inherit;" xlink:href="textedit://C:/Users/jwloy/Documents/GitHub/ill20231227/public/pieces/ill20231227/notation/featheredbeams.ly:82:87:88">
<g transform="translate(35.3535, 8.0611)">
<path transform="scale(0.0042, -0.0042)" d="M218 136c55 0 108 -28 108 -89c0 -71 -55 -121 -102 -149c-35 -21 -75 -34 -116 -34c-55 0 -108 28 -108 89c0 71 55 121 102 149c35 21 75 34 116 34z" fill="currentColor"/>
</g>
</a>
<a style="color:inherit;" xlink:href="textedit://C:/Users/jwloy/Documents/GitHub/ill20231227/public/pieces/ill20231227/notation/featheredbeams.ly:82:55:56">
<g transform="translate(3.1967, 1.2400)">
<polygon stroke-linejoin="round" stroke-linecap="round" stroke-width="0.0800" fill="currentColor" stroke="currentColor" points="33.4725 -0.2000 33.4725 0.2000 0.0400 0.2000 0.0400 -0.2000"/>
</g>
<g transform="translate(3.1967, 1.2400)">
<polygon stroke-linejoin="round" stroke-linecap="round" stroke-width="0.0800" fill="currentColor" stroke="currentColor" points="33.4725 0.6211 33.4725 1.0211 0.0400 0.2000 0.0400 -0.2000"/>
</g>
<g transform="translate(3.1967, 1.2400)">
<polygon stroke-linejoin="round" stroke-linecap="round" stroke-width="0.0800" fill="currentColor" stroke="currentColor" points="33.4725 1.4423 33.4725 1.8423 0.0400 0.2000 0.0400 -0.2000"/>
</g>
</a>
<g transform="translate(37.0886, 6.0611)">
<rect x="-0.0795" y="-2.3066" width="0.1590" height="6.8066" ry="0.0400" fill="currentColor"/>
</g>
<a style="color:inherit;" xlink:href="textedit://C:/Users/jwloy/Documents/GitHub/ill20231227/public/pieces/ill20231227/notation/featheredbeams.ly:89:8:9">
<g transform="translate(37.0091, 3.5611)">
<path transform="scale(0.0042, -0.0042)" d="M218 136c55 0 108 -28 108 -89c0 -71 -55 -121 -102 -149c-35 -21 -75 -34 -116 -34c-55 0 -108 28 -108 89c0 71 55 121 102 149c35 21 75 34 116 34z" fill="currentColor"/>
</g>
</a>
<g transform="translate(36.6296, 6.0611)">
<rect x="-0.0795" y="-4.8211" width="0.1590" height="6.6277" ry="0.0400" fill="currentColor"/>
</g>
<g transform="translate(34.9740, 6.0611)">
<rect x="-0.0795" y="-4.8211" width="0.1590" height="6.6277" ry="0.0400" fill="currentColor"/>
</g>
<a style="color:inherit;" xlink:href="textedit://C:/Users/jwloy/Documents/GitHub/ill20231227/public/pieces/ill20231227/notation/featheredbeams.ly:82:84:85">
<g transform="translate(33.6978, 8.0611)">
<path transform="scale(0.0042, -0.0042)" d="M218 136c55 0 108 -28 108 -89c0 -71 -55 -121 -102 -149c-35 -21 -75 -34 -116 -34c-55 0 -108 28 -108 89c0 71 55 121 102 149c35 21 75 34 116 34z" fill="currentColor"/>
</g>
</a>
<g transform="translate(33.3183, 6.0611)">
<rect x="-0.0795" y="-4.8211" width="0.1590" height="6.6277" ry="0.0400" fill="currentColor"/>
</g>
<g transform="translate(10.0410, 6.0611)">
<rect x="-0.0795" y="-4.8211" width="0.1590" height="6.6277" ry="0.0400" fill="currentColor"/>
</g>
<a style="color:inherit;" xlink:href="textedit://C:/Users/jwloy/Documents/GitHub/ill20231227/public/pieces/ill20231227/notation/featheredbeams.ly:82:57:58">
<g transform="translate(8.7649, 8.0611)">
<path transform="scale(0.0042, -0.0042)" d="M218 136c55 0 108 -28 108 -89c0 -71 -55 -121 -102 -149c-35 -21 -75 -34 -116 -34c-55 0 -108 28 -108 89c0 71 55 121 102 149c35 21 75 34 116 34z" fill="currentColor"/>
</g>
</a>
<g transform="translate(3.2762, 6.0611)">
<rect x="-0.0795" y="-4.8211" width="0.1590" height="6.6277" ry="0.0400" fill="currentColor"/>
</g>
<a style="color:inherit;" xlink:href="textedit://C:/Users/jwloy/Documents/GitHub/ill20231227/public/pieces/ill20231227/notation/featheredbeams.ly:74:8:9">
</a>
<a style="color:inherit;" xlink:href="textedit://C:/Users/jwloy/Documents/GitHub/ill20231227/public/pieces/ill20231227/notation/featheredbeams.ly:82:50:51">
<g transform="translate(2.0000, 8.0611)">
<path transform="scale(0.0042, -0.0042)" d="M218 136c55 0 108 -28 108 -89c0 -71 -55 -121 -102 -149c-35 -21 -75 -34 -116 -34c-55 0 -108 28 -108 89c0 71 55 121 102 149c35 21 75 34 116 34z" fill="currentColor"/>
</g>
</a>
<a style="color:inherit;" xlink:href="textedit://C:/Users/jwloy/Documents/GitHub/ill20231227/public/pieces/ill20231227/notation/featheredbeams.ly:82:60:61">
<g transform="translate(14.1768, 8.0611)">
<path transform="scale(0.0042, -0.0042)" d="M218 136c55 0 108 -28 108 -89c0 -71 -55 -121 -102 -149c-35 -21 -75 -34 -116 -34c-55 0 -108 28 -108 89c0 71 55 121 102 149c35 21 75 34 116 34z" fill="currentColor"/>
</g>
</a>
<g transform="translate(23.2461, 6.0611)">
<rect x="-0.0795" y="-4.8211" width="0.1590" height="6.6277" ry="0.0400" fill="currentColor"/>
</g>
<a style="color:inherit;" xlink:href="textedit://C:/Users/jwloy/Documents/GitHub/ill20231227/public/pieces/ill20231227/notation/featheredbeams.ly:82:66:67">
<g transform="translate(21.9699, 8.0611)">
<path transform="scale(0.0042, -0.0042)" d="M218 136c55 0 108 -28 108 -89c0 -71 -55 -121 -102 -149c-35 -21 -75 -34 -116 -34c-55 0 -108 28 -108 89c0 71 55 121 102 149c35 21 75 34 116 34z" fill="currentColor"/>
</g>
</a>
<g transform="translate(19.7825, 6.0611)">
<rect x="-0.0795" y="-4.8211" width="0.1590" height="6.6277" ry="0.0400" fill="currentColor"/>
</g>
<a style="color:inherit;" xlink:href="textedit://C:/Users/jwloy/Documents/GitHub/ill20231227/public/pieces/ill20231227/notation/featheredbeams.ly:82:63:64">
<g transform="translate(18.5063, 8.0611)">
<path transform="scale(0.0042, -0.0042)" d="M218 136c55 0 108 -28 108 -89c0 -71 -55 -121 -102 -149c-35 -21 -75 -34 -116 -34c-55 0 -108 28 -108 89c0 71 55 121 102 149c35 21 75 34 116 34z" fill="currentColor"/>
</g>
</a>
<g transform="translate(15.4529, 6.0611)">
<rect x="-0.0795" y="-4.8211" width="0.1590" height="6.6277" ry="0.0400" fill="currentColor"/>
</g>
</svg>
